<?xml version="1.0" encoding="UTF-8" standalone="no"?>
<svg
   height="210mm"
   width="297mm"
   viewBox="0 0 2970 2100"
   version="1.2"
   id="svg370"
   sodipodi:docname="PlaqueDeguisementLaser3mmHolonome.svg"
   inkscape:version="1.2.2 (732a01da63, 2022-12-09)"
   xml:space="preserve"
   xmlns:inkscape="http://www.inkscape.org/namespaces/inkscape"
   xmlns:sodipodi="http://sodipodi.sourceforge.net/DTD/sodipodi-0.dtd"
   xmlns="http://www.w3.org/2000/svg"
   xmlns:svg="http://www.w3.org/2000/svg"
   xmlns:rdf="http://www.w3.org/1999/02/22-rdf-syntax-ns#"
   xmlns:cc="http://creativecommons.org/ns#"
   xmlns:dc="http://purl.org/dc/elements/1.1/"><sodipodi:namedview
     id="namedview372"
     pagecolor="#505050"
     bordercolor="#ffffff"
     borderopacity="1"
     inkscape:showpageshadow="0"
     inkscape:pageopacity="0"
     inkscape:pagecheckerboard="1"
     inkscape:deskcolor="#505050"
     inkscape:document-units="mm"
     showgrid="false"
     inkscape:zoom="1.0556608"
     inkscape:cx="404.01236"
     inkscape:cy="375.1205"
     inkscape:window-width="1920"
     inkscape:window-height="1017"
     inkscape:window-x="1912"
     inkscape:window-y="396"
     inkscape:window-maximized="1"
     inkscape:current-layer="Page005" /><title
     id="title278">FreeCAD SVG Export</title><desc
     id="desc280">Drawing page: Page005 exported from FreeCAD document: actuator</desc><defs
     id="defs282" /><g
     inkscape:groupmode="layer"
     inkscape:label="TechDraw"
     id="Page005"><g
       stroke-linecap="square"
       stroke="#000000"
       fill="none"
       id="DrawingContent"
       stroke-linejoin="bevel"
       stroke-width="1"
       fill-rule="evenodd"
       transform="rotate(180,815.4,882)"><g
         stroke-linecap="square"
         font-weight="400"
         stroke="#000000"
         stroke-opacity="1"
         font-style="normal"
         fill="none"
         font-family="'MS Shell Dlg 2'"
         font-size="29.1042px"
         stroke-linejoin="bevel"
         stroke-width="1"
         transform="translate(815.4,882)"
         id="g286"><rect
           height="0"
           width="0"
           y="0"
           x="0"
           id="rect284" /></g><g
         fill-opacity="0"
         font-weight="400"
         stroke="none"
         font-style="normal"
         fill="#000000"
         font-family="'MS Shell Dlg 2'"
         font-size="29.1042px"
         transform="translate(815.4,882)"
         id="g290"><path
           d="M 685.361,-777 V 791 l -10,10 H 638 v 6 H -638 v -6 h -37.361 l -10,-10 V -777 l 30,-30 H 655.361 l 30,30"
           fill-rule="evenodd"
           vector-effect="non-scaling-stroke"
           id="path288" /></g><g
         stroke-linecap="square"
         font-weight="400"
         stroke="#000000"
         stroke-opacity="1"
         font-style="normal"
         fill="none"
         font-family="'MS Shell Dlg 2'"
         font-size="29.1042px"
         stroke-linejoin="bevel"
         stroke-width="1"
         transform="translate(815.4,882)"
         id="g294"><rect
           height="0"
           width="0"
           y="0"
           x="0"
           id="rect292" /></g><g
         fill-opacity="0"
         font-weight="400"
         stroke="none"
         font-style="normal"
         fill="#000000"
         font-family="'MS Shell Dlg 2'"
         font-size="29.1042px"
         transform="translate(815.4,882)"
         id="g298"><path
           d="m -582.5,773 c 0,9.665 -7.835,17.5 -17.5,17.5 -9.665,0 -17.5,-7.835 -17.5,-17.5 0,-9.665 7.835,-17.5 17.5,-17.5 9.665,0 17.5,7.835 17.5,17.5"
           fill-rule="evenodd"
           vector-effect="non-scaling-stroke"
           id="path296" /></g><g
         stroke-linecap="square"
         font-weight="400"
         stroke="#000000"
         stroke-opacity="1"
         font-style="normal"
         fill="none"
         font-family="'MS Shell Dlg 2'"
         font-size="29.1042px"
         stroke-linejoin="bevel"
         stroke-width="1"
         transform="translate(815.4,882)"
         id="g302"><rect
           height="0"
           width="0"
           y="0"
           x="0"
           id="rect300" /></g><g
         fill-opacity="0"
         font-weight="400"
         stroke="none"
         font-style="normal"
         fill="#000000"
         font-family="'MS Shell Dlg 2'"
         font-size="29.1042px"
         transform="translate(815.4,882)"
         id="g306"><path
           d="m 617.5,773 c 0,9.665 -7.835,17.5 -17.5,17.5 -9.665,0 -17.5,-7.835 -17.5,-17.5 0,-9.665 7.835,-17.5 17.5,-17.5 9.665,0 17.5,7.835 17.5,17.5"
           fill-rule="evenodd"
           vector-effect="non-scaling-stroke"
           id="path304" /></g><g
         stroke-linecap="square"
         font-weight="400"
         stroke="#000000"
         stroke-opacity="1"
         font-style="normal"
         fill="none"
         font-family="'MS Shell Dlg 2'"
         font-size="29.1042px"
         stroke-linejoin="bevel"
         stroke-width="1"
         transform="translate(815.4,882)"
         id="g310"><rect
           height="0"
           width="0"
           y="0"
           x="0"
           id="rect308" /></g><g
         stroke-linecap="round"
         font-weight="400"
         stroke="#ff0000"
         stroke-opacity="1"
         font-style="normal"
         fill="none"
         font-family="'MS Shell Dlg 2'"
         font-size="29.1042px"
         stroke-linejoin="bevel"
         stroke-width="2.5"
         transform="translate(815.4,882)"
         id="g314"><path
           d="M 685.361,-777 V 791"
           fill-rule="evenodd"
           vector-effect="none"
           id="path312" /></g><g
         stroke-linecap="round"
         font-weight="400"
         stroke="#ff0000"
         stroke-opacity="1"
         font-style="normal"
         fill="none"
         font-family="'MS Shell Dlg 2'"
         font-size="29.1042px"
         stroke-linejoin="bevel"
         stroke-width="2.5"
         transform="translate(815.4,882)"
         id="g318"><path
           d="m 685.361,-777 -30,-30"
           fill-rule="evenodd"
           vector-effect="none"
           id="path316" /></g><g
         stroke-linecap="round"
         font-weight="400"
         stroke="#ff0000"
         stroke-opacity="1"
         font-style="normal"
         fill="none"
         font-family="'MS Shell Dlg 2'"
         font-size="29.1042px"
         stroke-linejoin="bevel"
         stroke-width="2.5"
         transform="translate(815.4,882)"
         id="g322"><path
           d="m 685.361,791 -10,10"
           fill-rule="evenodd"
           vector-effect="none"
           id="path320" /></g><g
         stroke-linecap="round"
         font-weight="400"
         stroke="#ff0000"
         stroke-opacity="1"
         font-style="normal"
         fill="none"
         font-family="'MS Shell Dlg 2'"
         font-size="29.1042px"
         stroke-linejoin="bevel"
         stroke-width="2.5"
         transform="translate(815.4,882)"
         id="g326"><path
           d="M -655.361,-807 H 655.361"
           fill-rule="evenodd"
           vector-effect="none"
           id="path324" /></g><g
         stroke-linecap="round"
         font-weight="400"
         stroke="#ff0000"
         stroke-opacity="1"
         font-style="normal"
         fill="none"
         font-family="'MS Shell Dlg 2'"
         font-size="29.1042px"
         stroke-linejoin="bevel"
         stroke-width="2.5"
         transform="translate(815.4,882)"
         id="g330"><path
           d="M 675.361,801 H 638"
           fill-rule="evenodd"
           vector-effect="none"
           id="path328" /></g><g
         stroke-linecap="round"
         font-weight="400"
         stroke="#ff0000"
         stroke-opacity="1"
         font-style="normal"
         fill="none"
         font-family="'MS Shell Dlg 2'"
         font-size="29.1042px"
         stroke-linejoin="bevel"
         stroke-width="2.5"
         transform="translate(815.4,882)"
         id="g334"><path
           d="m -655.361,-807 -30,30"
           fill-rule="evenodd"
           vector-effect="none"
           id="path332" /></g><g
         stroke-linecap="round"
         font-weight="400"
         stroke="#ff0000"
         stroke-opacity="1"
         font-style="normal"
         fill="none"
         font-family="'MS Shell Dlg 2'"
         font-size="29.1042px"
         stroke-linejoin="bevel"
         stroke-width="2.5"
         transform="translate(815.4,882)"
         id="g338"><path
           d="m 638,801 v 6"
           fill-rule="evenodd"
           vector-effect="none"
           id="path336" /></g><g
         stroke-linecap="round"
         font-weight="400"
         stroke="#ff0000"
         stroke-opacity="1"
         font-style="normal"
         fill="none"
         font-family="'MS Shell Dlg 2'"
         font-size="29.1042px"
         stroke-linejoin="bevel"
         stroke-width="2.5"
         transform="translate(815.4,882)"
         id="g342"><path
           d="M -685.361,791 V -777"
           fill-rule="evenodd"
           vector-effect="none"
           id="path340" /></g><g
         stroke-linecap="round"
         font-weight="400"
         stroke="#ff0000"
         stroke-opacity="1"
         font-style="normal"
         fill="none"
         font-family="'MS Shell Dlg 2'"
         font-size="29.1042px"
         stroke-linejoin="bevel"
         stroke-width="2.5"
         transform="translate(815.4,882)"
         id="g346"><path
           d="M 638,807 H -638"
           fill-rule="evenodd"
           vector-effect="none"
           id="path344" /></g><g
         stroke-linecap="round"
         font-weight="400"
         stroke="#ff0000"
         stroke-opacity="1"
         font-style="normal"
         fill="none"
         font-family="'MS Shell Dlg 2'"
         font-size="29.1042px"
         stroke-linejoin="bevel"
         stroke-width="2.5"
         transform="translate(815.4,882)"
         id="g350"><path
           d="m -675.361,801 -10,-10"
           fill-rule="evenodd"
           vector-effect="none"
           id="path348" /></g><g
         stroke-linecap="round"
         font-weight="400"
         stroke="#ff0000"
         stroke-opacity="1"
         font-style="normal"
         fill="none"
         font-family="'MS Shell Dlg 2'"
         font-size="29.1042px"
         stroke-linejoin="bevel"
         stroke-width="2.5"
         transform="translate(815.4,882)"
         id="g354"><path
           d="m -638,807 v -6"
           fill-rule="evenodd"
           vector-effect="none"
           id="path352" /></g><g
         stroke-linecap="round"
         font-weight="400"
         stroke="#ff0000"
         stroke-opacity="1"
         font-style="normal"
         fill="none"
         font-family="'MS Shell Dlg 2'"
         font-size="29.1042px"
         stroke-linejoin="bevel"
         stroke-width="2.5"
         transform="translate(815.4,882)"
         id="g358"><path
           d="m -638,801 h -37.361"
           fill-rule="evenodd"
           vector-effect="none"
           id="path356" /></g><g
         stroke-linecap="round"
         font-weight="400"
         stroke="#ff0000"
         stroke-opacity="1"
         font-style="normal"
         fill="none"
         font-family="'MS Shell Dlg 2'"
         font-size="29.1042px"
         stroke-linejoin="bevel"
         stroke-width="2.5"
         transform="translate(815.4,882)"
         id="g362"><path
           d="m -582.5,773 c 0,9.665 -7.835,17.5 -17.5,17.5 -9.665,0 -17.5,-7.835 -17.5,-17.5 0,-9.665 7.835,-17.5 17.5,-17.5 9.665,0 17.5,7.835 17.5,17.5"
           fill-rule="evenodd"
           vector-effect="none"
           id="path360" /></g><g
         stroke-linecap="round"
         font-weight="400"
         stroke="#ff0000"
         stroke-opacity="1"
         font-style="normal"
         fill="none"
         font-family="'MS Shell Dlg 2'"
         font-size="29.1042px"
         stroke-linejoin="bevel"
         stroke-width="2.5"
         transform="translate(815.4,882)"
         id="g366"><path
           d="m 617.5,773 c 0,9.665 -7.835,17.5 -17.5,17.5 -9.665,0 -17.5,-7.835 -17.5,-17.5 0,-9.665 7.835,-17.5 17.5,-17.5 9.665,0 17.5,7.835 17.5,17.5"
           fill-rule="evenodd"
           vector-effect="none"
           id="path364" /></g></g><path
       style="fill:#000000"
       d="m 408.17861,862.95178 c -3.45041,-3.21455 -8.02526,-13.18594 -10.18739,-22.20454 -3.97814,-16.59344 -2.03146,-35.9626 5.07461,-50.4918 4.02296,-8.22543 6.97002,-11.58198 12.41703,-14.14238 5.6259,-2.64448 8.95305,-2.67715 11.51714,-0.11306 2.68133,2.68133 2.59481,8.33025 -0.43649,28.49617 -1.32248,8.79789 -2.27312,16.12756 -2.11253,16.28814 0.16058,0.16059 3.304,-4.23244 6.98537,-9.76229 14.28069,-21.45128 24.73572,-31.81691 35.94293,-35.63559 5.54235,-1.88847 8.83629,-0.68357 12.33339,4.51145 3.29439,4.8939 2.98,10.14877 -2.12999,35.60212 -5.72549,28.51919 -5.87776,29.59369 -4.65093,32.82049 1.94949,5.12754 3.93007,4.58751 11.00567,-3.00078 3.60942,-3.87096 8.69963,-10.59856 11.31158,-14.95022 l 4.749,-7.91212 -2.96227,-7.05042 c -6.2829,-14.95376 -5.82985,-28.88519 1.43697,-44.18705 8.57654,-18.05974 27.58471,-28.76073 39.62493,-22.30756 2.34255,1.25553 4.05475,1.60425 4.98519,1.01531 2.22483,-1.40824 9.11098,-1.08096 14.27454,0.67845 5.88969,2.00682 14.37495,9.63998 17.84674,16.05454 5.87003,10.84562 7.8232,26.15515 4.89128,38.33936 -3.6594,15.20737 -13.76248,27.83215 -27.73729,34.66043 C 544.92508,843.2923 543.9861,843.5 535,843.5 c -8.37035,0 -10.17496,-0.33146 -15.17623,-2.78746 -3.12193,-1.5331 -8.06786,-5.03283 -10.99095,-7.77717 -2.92309,-2.74434 -5.45336,-4.57375 -5.62283,-4.06535 -1.22401,3.67203 -16.86131,25.54485 -21.01452,29.39424 -5.9572,5.52142 -8.62718,6.73574 -14.81023,6.73574 -12.96862,0 -21.91536,-14.2282 -21.69373,-34.5 0.0794,-7.26274 0.79428,-11.31301 3.70345,-20.98267 1.98277,-6.59047 3.59835,-12.44047 3.59016,-13 -0.008,-0.55953 -1.59569,0.78267 -3.5278,2.98267 -11.91929,13.57194 -27.96254,42.8233 -31.40812,57.26581 -1.18057,4.9485 -3.80744,8.23419 -6.58314,8.23419 -0.59892,0 -2.07827,-0.9217 -3.28745,-2.04822 z M 542.20289,832.25 c 3.54444,-3.78228 6.35506,-9.68467 9.01261,-18.9268 3.096,-10.7669 3.31166,-35.85532 0.381,-44.3232 -3.0468,-8.80345 -5.58718,-11.70828 -9.07039,-10.37164 -2.51428,0.96481 -6.43622,10.49967 -7.70711,18.73716 -1.2032,7.79878 -1.22879,7.84663 -3.01625,5.63922 C 530.52184,781.42288 530,779.07368 530,774.88922 530,771.65015 529.62096,769 529.15769,769 c -1.56893,0 -8.03476,15.46045 -9.20079,22 -2.12961,11.94372 1.02873,26.30497 8.01961,36.46586 5.52946,8.0368 9.82467,9.48122 14.22638,4.78414 z m -215.65304,28.14441 c -14.36319,-3.47353 -24.31751,-14.34783 -27.60239,-30.15338 -0.75467,-3.63115 -1.45737,-5.02401 -2.27022,-4.49988 -0.64748,0.41751 -4.52003,2.97029 -8.60566,5.67284 C 279.01901,837.40208 272.4588,840 266.3904,840 c -9.16109,0 -16.38066,-6.12894 -18.52933,-15.73018 -4.06959,-18.18485 12.86456,-58.67187 33.52943,-80.16388 7.83588,-8.14952 20.38181,-17.94339 27.80234,-21.70366 6.54303,-3.31561 17.28025,-5.68211 23.24359,-5.12293 5.6981,0.53431 8.56357,3.1792 8.56357,7.90437 0,3.16177 -3.67555,7.1848 -24.06038,26.33496 -17.85402,16.77265 -29.46856,32.25401 -39.43904,52.56948 -7.12337,14.5143 -9.29763,21.24653 -7.54419,23.35929 2.53335,3.0525 10.25175,1.01995 21.46002,-5.65125 l 5.91641,-3.52147 1.71056,-8.44905 C 301.41609,798.10599 305.23583,790.76417 313,783 c 11.02489,-11.02489 24.59181,-16.6977 37.5838,-15.71512 9.64352,0.72934 14.82517,3.66534 18.26414,10.34875 0.64147,1.24664 2.47108,2.39124 4.40115,2.75332 7.99532,1.49993 16.00632,13.04729 17.24916,24.86361 1.43499,13.64313 -5.01504,30.27771 -15.99439,41.24944 -12.96138,12.95238 -30.65298,18.07843 -47.95401,13.89441 z M 331.5,849.12551 c 13.15615,-6.02079 30.40143,-27.03367 36.5547,-44.54082 2.51655,-7.16005 2.78143,-14.17713 0.61686,-16.3417 -3.06282,-3.06283 -11.08448,2.40041 -21.66768,14.75701 l -2.1412,2.5 0.45897,-4.14163 c 0.25243,-2.27789 1.63778,-5.87641 3.07856,-7.9967 1.56806,-2.30761 2.17741,-4.00246 1.51803,-4.22226 -1.77632,-0.5921 -14.63038,8.71103 -18.98238,13.73852 -8.22886,9.50608 -12.47412,22.26293 -11.72354,35.22874 0.37871,6.5421 0.8635,8.34513 2.79721,10.40347 2.77552,2.95441 4.18036,3.0455 9.49047,0.61537 z m 281.80114,-39.11622 c -4.86487,-2.0067 -15.9255,-15.22921 -23.01153,-27.50929 -10.88604,-18.86547 -17.89863,-42.20028 -15.88605,-52.86173 1.47735,-7.82609 8.26508,-10.86028 14.99315,-6.70211 3.83357,2.36928 6.4316,5.79978 10.50787,13.87482 1.71832,3.40396 3.39682,6.18902 3.73001,6.18902 0.33318,0 0.38225,-2.8125 0.10903,-6.25 -1.10955,-13.95986 2.98865,-34.77357 7.84495,-39.84245 5.98545,-6.24746 12.64885,-4.68912 21.68576,5.07157 l 6.42871,6.9436 0.60724,-10.21136 c 0.72498,-12.19127 2.60519,-19.94762 6.95988,-28.71136 2.86003,-5.75577 3.76663,-6.71863 7.91805,-8.40946 4.52289,-1.84213 4.85117,-1.84722 9.30988,-0.14442 6.55767,2.5044 10.44355,8.81975 14.95364,24.30268 6.59306,22.63373 13.83907,38.2512 17.74733,38.2512 1.69542,0 5.1917,-12.33853 6.16503,-21.75663 l 0.54325,-5.25663 -5.20367,-2.62124 c -2.95504,-1.48854 -8.44687,-5.91495 -12.7089,-10.24337 -17.24219,-17.51074 -22.4193,-40.33775 -14.0405,-61.90764 5.73962,-14.77576 13.50218,-22.27444 23.79055,-22.98182 5.14947,-0.35405 6.25747,-0.0599 10.52764,2.79493 12.38236,8.27822 19.09144,22.86777 19.07131,41.4724 -0.01,8.97033 -0.61446,12.70799 -3.90987,24.16508 -0.78574,2.73174 2.78945,5.28693 8.46194,6.04777 3.40863,0.4572 4.33191,0.14445 6.50922,-2.20491 4.46088,-4.81337 6.88067,-12.87425 7.3642,-24.53182 0.56486,-13.61838 -1.36455,-23.93353 -7.91398,-42.31019 -6.44479,-18.08306 -6.64951,-18.96553 -4.29462,-18.51202 2.96791,0.57156 13.16816,25.54918 17.14776,41.99014 1.32496,5.47385 1.78194,11.44972 1.78606,23.35595 0.005,15.145 -0.14784,16.41685 -2.8644,23.80062 -5.39343,14.65969 -15.49115,22.49805 -30.24019,23.47397 l -7.11012,0.47047 -0.59042,8.36635 c -1.91129,27.08315 -14.05292,44.48905 -26.48901,37.97391 -10.45456,-5.47704 -24.05197,-31.05761 -28.2176,-53.08532 -0.72807,-3.85 -1.68671,-7.41717 -2.1303,-7.92705 -0.45118,-0.51859 -1.55584,0.80321 -2.50717,3 -1.21011,2.79435 -1.82522,7.6878 -2.1326,16.96554 -0.53105,16.02923 1.43528,30.64201 6.42766,47.76708 1.95524,6.70694 3.62354,14.36995 3.70733,17.02893 0.13093,4.15503 -0.242,5.17398 -2.65342,7.25 -1.96352,1.6904 -4.0157,2.4155 -6.83638,2.4155 -3.59314,0 -4.62208,-0.61557 -9.47999,-5.67147 -4.11216,-4.27976 -7.00992,-8.88082 -11.8088,-18.75 -7.44726,-15.31573 -13.53327,-30.33686 -13.65502,-33.70251 -0.0767,-2.12148 -0.1874,-2.05463 -1.03287,0.62398 -1.38995,4.40361 -1.35624,27.82129 0.0525,36.5 1.48959,9.1766 7.30267,31.59856 10.04903,38.76073 2.54451,6.63574 2.52429,7.56028 -0.23275,10.64586 -2.58671,2.89494 -6.27645,3.91129 -9.44886,2.6027 z M 714.44421,659.25 c 5.89604,-17.15842 0.66423,-39.88248 -11.27195,-48.95907 -8.25197,-6.27502 -12.41765,-3.56335 -13.02577,8.47919 -0.78585,15.56224 5.07875,29.68494 17.13947,41.27396 2.26431,2.17576 4.43398,3.95592 4.82148,3.95592 0.38751,0 1.43905,-2.1375 2.33677,-4.75 z M 197.76339,808.01158 c -17.39026,-3.09119 -31.46171,-13.71331 -35.37008,-26.69983 -2.10275,-6.98689 -1.78339,-19.21308 0.69464,-26.5933 2.57277,-7.66241 7.61032,-16.09685 12.34212,-20.66462 3.47389,-3.35346 4.61241,-6.05383 2.55238,-6.05383 -2.06574,0 -17.01851,9.98564 -32.92827,21.9899 -15.13437,11.41921 -16.18648,12.41739 -13.96102,13.24526 1.32376,0.49244 4.65684,0.75348 7.40684,0.58009 5.90501,-0.37231 6.92788,1.72742 2,4.10558 -4.68286,2.25991 -18.88974,2.70905 -21.96451,0.69438 -6.62997,-4.34412 -7.31849,-15.09418 -1.73062,-27.02045 4.39304,-9.37612 16.85653,-21.68449 31.914,-31.51681 9.23983,-6.03348 11.0613,-7.62019 10.32563,-8.99481 -1.1129,-2.07945 -14.7385,-17.59977 -18.77278,-21.38323 l -2.98571,-2.80008 -14.89301,5.60462 C 89.329761,694.947 68.134944,697.60056 54.507494,691.00363 49.767432,688.709 45,682.69592 45,679.01197 c 0,-4.57886 4.080473,-11.10705 8.822075,-14.11409 5.310831,-3.36803 6.574048,-3.00503 3.001615,0.86255 -1.391778,1.50676 -2.830025,3.58616 -3.196104,4.62089 -0.618276,1.74756 -0.251536,1.83447 5.158243,1.22242 C 72.113009,670.09594 115.5,656.56067 115.5,653.91085 c 0,-1.95778 -9.94704,-8.38069 -19.231215,-12.41781 -5.395118,-2.34601 -7.245431,-3.56477 -6.086927,-4.00933 2.996233,-1.14976 14.110292,2.36563 25.157862,7.95748 l 10.83973,5.48663 12.41274,-5.37091 c 13.6206,-5.89354 32.95631,-16.55276 41.14434,-22.68169 5.06368,-3.79028 7.21957,-7.5192 5.73554,-9.92042 -1.3252,-2.1442 -7.36507,-3.95481 -13.18995,-3.95401 -6.23029,8.5e-4 -15.1266,3.4906 -21.72124,8.52057 -4.44009,3.38662 -6.25822,1.29082 -1.97219,-2.2734 11.04742,-9.18692 20.17298,-12.69239 31.35597,-12.04502 13.61977,0.78843 21.63165,6.85844 22.80614,17.27852 0.9924,8.80453 -1.0996,13.03552 -11.66702,23.59617 -10.29516,10.28857 -20.62753,17.63372 -33.92048,24.11369 l -8.33671,4.06393 4.41057,4.62237 c 3.57191,3.74345 15.40555,17.41355 16.46949,19.02538 0.14631,0.22165 5.10967,-1.86608 11.02968,-4.63939 34.13468,-15.99087 67.18959,-20.44489 85.26367,-11.48893 9.25237,4.58467 12.2823,11.87577 6.84657,16.47532 -2.71584,2.29806 -4.16632,2.23486 -2.69722,-0.11753 2.16774,-3.47111 0.41724,-5.13247 -5.40787,-5.13247 -6.72145,0 -14.28543,1.9667 -27.11987,7.05141 -12.69061,5.02773 -50.8924,24.26097 -51.43778,25.89709 -0.28717,0.86152 0.43095,0.78711 2.45514,-0.2544 11.13858,-5.73117 28.97479,-7.43952 39.57961,-3.79092 11.11999,3.82583 17.78139,10.27498 17.78145,17.21485 2e-5,2.68119 0.74221,3.97415 3.58178,6.23986 5.60224,4.47004 7.68325,10.43057 7.20682,20.64211 -0.34819,7.46278 -0.85007,9.36063 -4.11289,15.55288 -10.44981,19.83184 -34.19981,32.14043 -54.91235,28.4587 z m 1.3927,-21.35849 c 12.5635,-4.33137 23.3884,-11.15899 33.4859,-21.12064 6.13623,-6.05368 8.46287,-9.10927 9.44458,-12.40359 1.19406,-4.00693 1.14239,-4.48827 -0.62013,-5.77706 -2.90624,-2.12509 -9.75637,-0.81008 -18.95583,3.63894 -4.39417,2.12509 -8.12352,3.72969 -8.28744,3.56576 -1.00712,-1.00712 2.71797,-5.89458 6.65061,-8.72587 4.57693,-3.29515 4.59677,-3.33402 1.8615,-3.64847 -9.34467,-1.0743 -26.66545,6.73475 -35.06777,15.81025 -6.29876,6.80342 -11.37633,16.36661 -12.28513,23.13805 -0.52163,3.88663 -0.28098,4.97094 1.49808,6.75 3.21471,3.21471 10.56589,2.80967 22.27563,-1.22737 z M 464,727.38845 c -1.925,-0.19869 -9.125,-0.86154 -16,-1.47298 -36.83595,-3.27612 -81.07499,-14.04214 -101.31058,-24.65497 -5.5247,-2.8975 -7.6718,-4.7788 -11.37196,-9.9641 -2.84564,-3.98782 -7.61868,-8.71877 -12.68942,-12.57754 C 303.89642,664.46432 287.50433,649.28728 272.24435,632.06983 265.33612,624.27544 263,620.94198 263,618.87885 c 0,-3.61551 -0.72693,-3.94079 -5.78786,-2.58995 l -4.23522,1.13044 -6.59158,-6.45967 c -8.27561,-8.11001 -18.70012,-21.43575 -26.05713,-33.30905 -17.21141,-27.77708 -33.80079,-70.13394 -34.47772,-88.03027 -0.15405,-4.07291 0.25709,-5.13613 3.13384,-8.10418 3.15341,-3.2535 3.23686,-3.52964 1.7517,-5.79629 -4.36608,-6.66347 -10.23167,-43.88654 -11.75248,-74.58122 -0.85686,-17.294 -1.40872,-21.96473 -3.04671,-25.786 -3.343,-7.79891 -3.48414,-14.48457 -0.54852,-25.98394 9.09988,-35.64599 29.2981,-83.86725 45.39189,-108.36872 7.146,-10.87919 9.50215,-12.93965 17.13348,-14.98328 2.42754,-0.65008 8.34539,-4.00512 13.15079,-7.45564 10.3978,-7.46615 24.75278,-14.96823 38.25285,-19.99137 C 299.09039,194.93333 323.74512,190 332.14521,190 c 4.62342,0 6.49747,-0.88059 13.27452,-6.23754 2.72904,-2.15718 7.23852,-5.12372 10.02108,-6.5923 4.75139,-2.50771 5.81968,-2.66262 17.55919,-2.54616 17.77591,0.17633 39.89916,4.97458 60.4396,13.10857 8.57328,3.39502 9.62491,3.57698 19.5604,3.38449 21.71304,-0.42068 47.7583,4.92717 70.85312,14.54821 12.85597,5.35564 13.69013,5.5646 20.32083,5.09017 8.48802,-0.60731 9.51983,-0.13033 25.45872,11.76897 14.43993,10.78024 40.83957,36.90663 51.50872,50.97559 9.53447,12.57269 18.95075,26.97564 26.47456,40.49493 7.6367,13.72213 18.3769,37.7827 18.3809,41.17752 0.002,1.96312 -1.33889,3.84644 -5.05307,7.09551 l -5.05622,4.42306 5.91433,2.15647 5.91433,2.15648 2.58418,9.74801 c 6.835,25.78296 9.10835,43.56568 9.10835,71.24802 0,24.87225 -2.00152,43.34455 -5.48408,50.61331 l -1.97074,4.11331 2.77303,5.34087 c 2.27925,4.38984 2.76704,6.5955 2.73932,12.38669 -0.0289,6.04671 -0.75275,8.88924 -5.10437,20.04582 -12.88317,33.02953 -24.87009,51.23364 -49.14558,74.63563 -7.05424,6.8004 -14.0203,14.43803 -15.48013,16.97251 -1.45983,2.53447 -3.80888,5.36469 -5.22012,6.28937 l -2.5659,1.68124 7.27491,4.95479 c 4.0012,2.72513 8.53912,6.00811 10.08426,7.29551 l 2.80936,2.34073 -3.62387,11.41511 c -4.10035,12.91599 -3.43569,12.11334 -20.99484,25.35362 -9.01905,6.80071 -14.06147,9.66907 -28,15.92768 l -17,7.63326 -20,2.91813 c -17.19326,2.50861 -35.11286,4.22754 -57.5,5.51566 -3.025,0.17405 -7.075,0.1539 -9,-0.0448 z m 31.67032,-15.50344 c 23.97373,-8.45762 45.20292,-23.19699 61.65738,-42.80858 7.5159,-8.95799 9.60208,-12.61219 8.02164,-14.05095 -0.46714,-0.42526 -6.38753,-1.73427 -13.15643,-2.90892 -21.20326,-3.67951 -36.03942,-10.98428 -45.05591,-22.18385 -3.46056,-4.29843 -5.97707,-6.18597 -12.05297,-9.0405 l -7.67923,-3.60779 -4.13415,-14.89221 C 476.24646,577.08944 474.23017,564.83415 473.33469,542 c -1.38126,-35.22154 5.56747,-68.73777 20.62878,-99.5 3.23139,-6.6 6.49068,-12.81851 7.24287,-13.81892 1.30049,-1.72964 3.42726,-1.30158 43.33064,8.72137 l 41.96302,10.54029 3.44831,-3.43635 3.44831,-3.43635 -4.29411,-14.28502 C 577.39297,387.83139 556.96428,345.71064 534.64396,314.5 521.79155,296.52841 517.83992,292.00597 515,292.01847 c -6.4047,0.0282 -6.34078,-0.0973 -22.39953,43.98153 l -15.11923,41.5 -6.49062,-0.29389 c -8.1763,-0.37022 -22.11038,-2.63978 -32.49062,-5.29202 -34.16432,-8.72926 -65.46247,-27.41891 -91.70866,-54.7637 -7.65193,-7.97222 -24.0761,-27.84693 -27.0281,-32.70641 -0.35282,-0.58081 0.13886,-4.65191 1.09263,-9.0469 1.67115,-7.70063 1.66615,-8.1468 -0.13766,-12.28332 -2.50746,-5.75012 -3.70563,-18.65423 -2.57654,-27.74877 1.16672,-9.39761 5.55932,-22.32751 10.87655,-32.01577 2.57761,-4.69654 3.8018,-7.9292 3.22222,-8.50878 -1.98245,-1.98245 -27.14047,2.41288 -41.30503,7.21636 -10.37436,3.51815 -29.06285,13.6087 -38.59683,20.83975 l -8.83858,6.70362 -0.26833,5.44991 -0.26832,5.44992 20.14837,23.5 c 11.08161,12.925 21.24377,25.14083 22.58258,27.14629 l 2.43421,3.64629 -1.59597,12.26751 c -4.1183,31.65571 -13.02256,58.02862 -26.6524,78.93991 -5.72437,8.78249 -19.86818,22.56807 -28.40165,27.68231 L 224.5,417.86462 218,410.95043 c -5.16371,-5.49275 -8.35025,-7.83091 -15.5,-11.3733 -4.95,-2.4525 -11.5875,-6.77165 -14.75,-9.5981 l -5.75,-5.139 0.002,4.32998 c 0.009,15.53689 3.68267,48.20479 7.59275,67.51265 2.76311,13.6442 4.54328,18.31734 6.97775,18.31734 0.83686,0 7.54723,-4.27835 14.91194,-9.50745 7.36471,-5.2291 14.06723,-9.76718 14.8945,-10.08463 1.95178,-0.74897 9.17676,6.77543 20.42388,21.27032 4.77049,6.14803 8.81654,11.03531 8.99122,10.86062 0.17469,-0.17469 -0.34397,-2.95489 -1.15259,-6.17824 -3.0834,-12.29125 -4.00196,-21.36044 -3.98657,-39.36062 0.0129,-15.11985 0.39557,-20.15525 2.0943,-27.5594 7.86569,-34.28359 25.9851,-54.31037 59.79338,-66.08761 7.15577,-2.49274 9.26606,-2.76747 20.95701,-2.72832 10.06025,0.0337 14.75538,0.52479 20.76256,2.17173 42.9915,11.78664 82.16318,53.39864 99.73181,105.94488 6.47021,19.35186 8.08113,28.39478 8.70959,48.89154 0.6537,21.31984 -0.88753,33.20346 -6.25338,48.21645 -8.91585,24.94546 -23.57791,39.6024 -50.43359,50.416 L 395.5,605.5 380,605.47895 c -18.43181,-0.025 -23.34339,-1.13034 -39.5,-8.88925 -16.51053,-7.92887 -33.75775,-21.59769 -45.97353,-36.43509 -2.73544,-3.32249 -5.0717,-5.94271 -5.19169,-5.82272 -0.11999,0.11999 1.30788,4.86635 3.17305,10.54746 3.21371,9.78863 9.10875,34.89365 8.34753,35.54938 -0.19545,0.16837 -5.53036,2.36394 -11.85536,4.87906 -20.57989,8.18353 -23.16841,9.57267 -22.4226,12.03315 1.25471,4.13938 8.48019,12.38169 25.64272,29.25136 14.11541,13.87456 29.835,27.52975 35.27988,30.64671 0.64693,0.37034 0.87577,-2.80348 0.64816,-8.98918 -0.23082,-6.27263 0.2458,-12.73666 1.3856,-18.79195 1.65091,-8.77059 1.65063,-9.58458 -0.006,-16.34294 -0.95867,-3.91194 -1.48989,-7.77231 -1.18049,-8.5786 0.82315,-2.14509 13.37191,-8.17715 22.36083,-10.74862 6.62838,-1.89618 10.17997,-2.22434 23.79149,-2.19827 18.05265,0.0346 27.86882,1.72383 46.41682,7.98782 9.54934,3.22499 35.89514,15.53928 40.3755,18.87192 1.32171,0.98313 3.89617,10.35475 9.80488,35.692 8.00133,34.31065 8.01763,34.36337 11.62429,37.60881 1.98645,1.7875 3.7259,3.25 3.86544,3.25 0.13954,0 4.22707,-1.40175 9.08339,-3.11499 z m 2.50846,-25.82277 c -8.34136,-4.0177 -17.27676,-12.97598 -21.18677,-21.24102 -2.52429,-5.33589 -2.99056,-7.53701 -2.99122,-14.12088 -8.8e-4,-8.72342 1.24181,-12.0438 6.00876,-16.05492 9.46514,-7.9644 25.5073,-4.42725 37.17447,8.19663 7.56561,8.18597 11.05367,15.7866 11.54543,25.15795 0.46351,8.83289 -1.07418,12.63556 -7.03582,17.39939 -3.23104,2.58187 -4.8181,3.09193 -10.5,3.37456 -5.80366,0.28869 -7.53408,-0.0719 -13.01485,-2.71171 z m 22.10994,-4.99048 4.21128,-3.92823 v -7.82177 c 0,-6.63065 -0.44765,-8.73351 -2.93962,-13.809 -3.57171,-7.27465 -10.53758,-14.45404 -17.39645,-17.92969 C 500.14155,635.54478 497.60546,635 492.139,635 c -6.21856,0 -7.23641,0.28858 -9.94621,2.8199 -5.22817,4.88385 -6.42038,15.35272 -2.69671,23.6801 l 1.34148,3 0.0812,-4.61514 c 0.25959,-14.75049 19.38358,-13.81775 27.1728,1.3253 2.30096,4.4733 2.51059,12.48512 0.40532,15.49081 -2.20724,3.15126 -7.781,4.74424 -11.75395,3.35927 -5.09117,-1.7748 -1.82457,0.71433 3.84046,2.92639 2.70412,1.0559 7.29652,1.94087 10.20531,1.9666 4.80198,0.0425 5.67631,-0.31477 9.5,-3.88147 z m -15.32616,-6.67736 c 2.15976,-2.05402 1.55461,-9.01589 -1.12343,-12.92423 C 501.19254,657.60773 494.49227,653 491.52234,653 c -9.10612,0 -8.68636,13.25039 0.64252,20.28229 5.14699,3.87969 9.49074,4.25716 12.7977,1.11211 z M 492.8728,672.31629 C 487.79698,669.16612 485.06658,660.33342 488.2,657.2 c 1.64656,-1.64656 7.88066,-1.45369 10.21976,0.31618 10.04087,7.59734 4.90919,21.28942 -5.54696,14.80011 z M 500,667.31445 C 500,663.94872 496.39686,660 493.32569,660 c -3.20916,0 -3.13606,4.28054 0.12886,7.54545 3.39345,3.39346 6.54545,3.28222 6.54545,-0.231 z m -191.5,-10.9667 c -3.79907,-1.99095 -12.01271,-9.87586 -14.57468,-13.99138 -4.65605,-7.47941 -6.37228,-20.65758 -3.43103,-26.34533 6.17633,-11.9437 23.79695,-5.23997 32.74916,12.45934 3.56577,7.04983 4.84199,17.49491 2.75364,22.53665 -2.72519,6.5792 -10.56665,8.97268 -17.49709,5.34072 z M 321.04395,651.75 c 1.83334,-1.94406 2.07365,-3.20181 1.76737,-9.25 -0.55641,-10.98739 -7.26278,-22.13886 -15.99236,-26.59236 -7.77854,-3.96831 -13.36967,-0.82289 -14.53847,8.17894 l -0.57304,4.41342 2.12365,-1.88451 c 2.85416,-2.53277 8.53589,-1.59613 12.32212,2.0313 3.67219,3.51819 7.15249,12.68482 6.29622,16.58339 -0.38079,1.73376 -1.85087,3.65148 -3.62725,4.73176 l -2.98695,1.81647 2.83238,1.03185 c 5.04349,1.83736 10.04805,1.40863 12.37633,-1.06026 z M 308,645.00979 c 0,-1.89437 -0.0963,-1.90774 -2,-0.27776 -1.1,0.94185 -2,1.83744 -2,1.99021 0,0.15277 0.9,0.27776 2,0.27776 1.33005,0 2,-0.66667 2,-1.99021 z m -5.46114,-8.59082 c -0.8947,-1.36549 -2.05695,-2.2168 -2.58279,-1.89182 -1.44018,0.89008 -1.17762,1.92148 1.28671,5.05437 1.8776,2.38698 2.29814,2.56375 2.58279,1.08569 0.18701,-0.97105 -0.39201,-2.88276 -1.28671,-4.24824 z m -4.26046,-7.26736 c -0.84631,-0.19162 -1.92328,0.25838 -2.39326,1 -1.56575,2.4707 -0.91219,2.96194 1.52344,1.14507 1.86809,-1.39351 2.06328,-1.87486 0.86982,-2.14507 z M 203.5,452.1293 C 192.90024,445.54605 185.90165,428.57375 188.18959,415 c 1.00913,-5.98689 6.17964,-11 11.34538,-11 4.6668,0 8.29266,1.95992 12.74687,6.8902 11.29616,12.50351 14.0463,31.93551 5.70081,40.281 -3.44915,3.44914 -9.79577,3.869 -14.48265,0.9581 z m 12.90066,-5.46006 c 1.71839,-2.31707 2.08984,-4.22245 2.04701,-10.5 -0.0452,-6.62307 -0.50925,-8.59408 -3.40196,-14.44907 -7.66582,-15.516 -20.49892,-18.60113 -23.56034,-5.66399 -0.57447,2.42761 -0.42549,2.53523 2.96213,2.13974 2.2696,-0.26496 4.5033,0.19705 6.14115,1.27021 3.24238,2.12449 7.38872,10.89102 7.40158,15.64901 0.0108,3.98199 -2.95676,8.567 -6.35943,9.82573 -1.90342,0.70412 -1.73242,0.96656 1.88811,2.89774 5.44216,2.90282 10.18075,2.47267 12.88175,-1.16937 z M 202.8,439.8 c 0.66,-0.66 1.18632,-1.8975 1.16959,-2.75 -0.025,-1.27593 -0.21063,-1.24057 -1.04969,0.2 -0.5606,0.9625 -2.00942,1.75689 -3.21959,1.76531 -1.78727,0.0124 -1.91873,0.19728 -0.70031,0.98469 1.94962,1.25994 2.36175,1.23825 3.8,-0.2 z m -2.8,-6.68922 c 0,-2.50955 -3.91836,-7.37537 -3.96673,-4.92588 -0.0505,2.56014 1.78625,6.8151 2.94198,6.8151 0.56361,0 1.02475,-0.85015 1.02475,-1.88922 z m -1.72933,-9.58287 c 0.67613,0.34122 0.36625,-0.0803 -0.68863,-0.93681 -1.42887,-1.16012 -2.25762,-1.27531 -3.25,-0.45171 -2.06805,1.71633 -1.56867,3.05762 0.68863,1.84955 1.11136,-0.59479 2.57386,-0.80225 3.25,-0.46103 z M 515.302,417.95793 c -10.10999,-4.00453 -19.5436,-14.90665 -22.84928,-26.40617 -2.05196,-7.13819 -1.58599,-19.93118 0.9461,-25.97466 2.80031,-6.68366 8.14336,-12.22639 15.07579,-15.63922 5.79753,-2.85411 7.13261,-3.12438 13.72385,-2.7782 9.13526,0.47979 15.43415,3.37838 22.36297,10.29084 9.36783,9.34571 13.62259,22.24004 11.61007,35.18505 -1.84513,11.86836 -7.11204,19.72108 -16.44806,24.52332 -6.14893,3.16288 -17.51477,3.53475 -24.42144,0.79904 z m 22.81553,-4.75067 c 21.90187,-11.44167 18.69117,-47.15205 -5.3181,-59.14962 -6.90464,-3.45029 -15.32152,-4.11982 -21.15428,-1.68274 -5.01642,2.096 -10.47859,7.38598 -13.45937,13.03508 -2.40391,4.55583 -2.68291,6.1395 -2.65842,15.09002 0.0223,8.13662 0.4376,10.89992 2.22894,14.8295 7.9523,17.44463 25.93931,25.41186 40.36123,17.87776 z m -24.50205,-8.64693 c -5.38968,-1.96626 -11.42414,-8.13602 -12.74108,-13.02677 -1.51003,-5.60782 -0.63276,-14.03626 1.80326,-17.32503 6.77902,-9.15206 17.91135,-9.6114 26.02981,-1.07405 6.15078,6.46816 7.86111,15.99382 4.22158,23.51209 -3.51397,7.25888 -11.80099,10.6545 -19.31357,7.91376 z m 12.16577,-5.15266 C 528.63145,397.54015 531,392.29368 531,387.84784 c 0,-4.76225 -3.71752,-11.58379 -7.83906,-14.38445 -12.05749,-8.19327 -24.12983,5.82573 -16.8582,19.57659 4.16631,7.87862 12.84335,10.71522 19.47851,6.36769 z m -11.40295,-2.8219 C 509.8017,394.56065 508,391.37737 508,385.31645 c 0,-5.59854 2.13053,-8.80914 6.58808,-9.92791 3.30786,-0.83022 9.09331,2.09465 10.8455,5.48302 4.97592,9.62236 -2.0982,19.67767 -11.05528,15.71421 z m 6.79296,-4.24076 c 2.8838,-2.6098 2.44733,-8.71327 -0.80612,-11.27243 -3.39861,-2.67335 -5.8641,-2.62601 -7.80844,0.14993 -2.67046,3.81262 -1.26168,9.63763 2.80738,11.6079 3.00177,1.45348 3.73221,1.39243 5.80718,-0.4854 z M 289.5,280.34511 c -4.22411,-2.2174 -10.18164,-8.13102 -12.95325,-12.85779 -6.5171,-11.11439 -7.4936,-29.00413 -2.17449,-39.83688 4.05673,-8.26181 9.83403,-11.9527 17.86239,-11.41157 6.45276,0.43493 10.79187,3.22688 16.43141,10.57259 9.54142,12.42806 10.96279,34.0692 3.01511,45.90676 -5.54025,8.25185 -14.87572,11.4618 -22.18117,7.62689 z m 16.65581,-7.14649 C 321.08877,257.1897 309.7882,220 289.99073,220 c -3.79845,0 -4.84057,0.52914 -8.4395,4.28519 -2.32949,2.43119 -4.66578,6.15379 -5.39991,8.60409 -0.71169,2.37539 -1.56534,5.02607 -1.89701,5.89039 -0.33167,0.86432 0.99523,-0.17252 2.94866,-2.30409 2.86986,-3.13155 4.24596,-3.87558 7.16801,-3.87558 7.75187,0 13.62902,8.26984 13.62902,19.17763 0,3.49462 -0.50623,7.33677 -1.12496,8.53811 -3.93389,7.63814 -10.21596,8.94322 -16.53099,3.43426 l -3.72554,-3.25 2.35305,4.21114 c 4.90986,8.78696 12.03625,13.64197 18.99119,12.93817 3.62286,-0.3666 5.16478,-1.20422 8.19306,-4.45069 z M 292.66239,259.75 c 2.29749,-4.35704 2.16282,-12.65476 -0.27291,-16.81426 -2.64582,-4.51828 -6.64521,-7.30674 -9.28027,-6.4704 -2.64101,0.83822 -5.15443,5.50569 -4.97303,9.235 0.13148,2.70289 0.15191,2.71325 0.59118,0.29966 0.64887,-3.5653 3.16461,-6.00247 6.17763,-5.98469 4.95024,0.0292 8.09501,4.38301 8.09501,11.2072 0,11.19889 -11.38621,11.68067 -14.01058,0.59282 -0.78067,-3.29833 -0.78522,-3.30055 -0.88706,-0.43336 -0.11184,3.149 3.07192,9.03313 5.72538,10.58143 3.55754,2.07586 7.03189,1.2054 8.83465,-2.2134 z M 288.5,250.59529 c 0,-5.37685 -2.27786,-8.21743 -4.67071,-5.82458 -1.56186,1.56186 -1.41464,7.81906 0.2306,9.80146 2.49028,3.0006 4.44011,1.25419 4.44011,-3.97688 z m 54.42644,373.15505 c 3.66658,-4.00501 4.00449,-4.67458 1.96843,-3.90047 -4.91552,1.86888 -11.93383,5.40415 -12.47872,6.2858 -0.30709,0.49689 -0.007,2.57462 0.6673,4.61718 l 1.22565,3.71375 2.09545,-2.94063 c 1.1525,-1.61735 4.08735,-5.11638 6.52189,-7.77563 z M 500.46264,614.75 c -0.91066,-4.2507 -0.90935,-4.24999 -3.86282,-2.09827 -3.13814,2.28624 -3.17858,2.76351 -0.34982,4.12778 4.07046,1.96311 4.97468,1.52749 4.21264,-2.02951 z m -5.36639,-6.04163 3.59626,-3.20837 -1.27343,-8.5 c -0.70039,-4.675 -1.80834,-17.80042 -2.46212,-29.1676 -2.65917,-46.23522 4.16272,-94.15061 18.02835,-126.62695 3.2429,-7.59558 3.33844,-7.43452 -5.16654,-8.70992 l -4.44534,-0.66662 -5.3196,11.33555 C 488.02361,464.53791 483.59238,478.23978 479.34964,501 c -2.76807,14.84929 -2.54545,52.39829 0.40634,68.53824 3.23465,17.68659 9.70791,42.50332 11.06498,42.42013 0.37347,-0.0229 2.29735,-1.48539 4.27529,-3.25 z m -99.55635,-8.24692 c 24.6475,-6.36255 42.19019,-26.54006 49.8693,-57.35936 2.31907,-9.30737 2.5908,-12.33574 2.5908,-28.87436 0,-15.81707 -0.36612,-20.2937 -2.54366,-31.10209 C 431.5414,414.05788 379.35419,357.32091 327,354.34211 c -12.12456,-0.68985 -21.73726,1.25803 -32.57583,6.60106 -6.46158,3.18533 -9.68002,5.65206 -16.10135,12.34066 -9.24769,9.63262 -13.94139,17.44294 -18.28303,30.42303 -7.84176,23.44426 -7.84723,53.37523 -0.015,82.18447 12.74436,46.87768 44.75324,88.79958 81.44279,106.66533 15.34183,7.47061 22.42277,9.28522 36.57235,9.37231 7.35915,0.0453 13.69917,-0.48637 17.5,-1.46752 z M 380,589.87927 c -5.70081,-2.26654 -12.96472,-12.70167 -12.99023,-18.66139 -0.0474,-11.07181 11.49656,-14.71155 19.92567,-6.28244 7.47576,7.47576 8.82817,18.56135 2.87549,23.5702 -3.13553,2.63837 -5.7198,3.00019 -9.81093,1.37363 z m 7.3317,-4.13255 c 0.94268,-0.6893 1.95476,-2.8268 2.24907,-4.75 C 390.62405,574.17928 382.77479,564 376.47456,564 c -7.89626,0 -5.70356,15.84035 2.92067,21.09928 3.63297,2.21534 5.57553,2.37381 7.93647,0.64744 z m -82.82213,-28.91786 c -3.71036,-2.91856 -7.48773,-11.30745 -7.4998,-16.65578 -0.008,-3.48966 0.5756,-4.9123 3.0154,-7.35209 2.44176,-2.44177 3.55065,-2.896 5.75,-2.35536 10.4935,2.5795 17.96695,18.50731 12.15225,25.89951 -2.72615,3.46574 -9.31205,3.69335 -13.41785,0.46372 z m 9.66169,-2.48385 c 2.60418,-2.35675 2.30683,-7.85349 -0.70264,-12.98876 C 310.70049,536.63278 308.44102,535 304.67273,535 301.89338,535 301,536.61307 301,541.63145 c 0,4.38784 2.06475,8.4038 6.04081,11.74943 3.63976,3.06266 4.65927,3.20052 7.13045,0.96413 z m 28.94107,-6.86201 c -27.65519,-7.76362 -51.64146,-40.73315 -54.63958,-75.10299 -1.66244,-19.05786 4.89174,-37.53504 16.24247,-45.78981 6.08025,-4.42184 18.52415,-8.5902 25.64454,-8.5902 25.40474,0 52.07894,26.61559 61.75165,61.61597 2.50891,9.0784 3.029,27.48374 1.01066,35.76606 -4.35117,17.85514 -20.5049,32.03675 -37.77816,33.16602 -4.37142,0.28579 -8.7903,-0.099 -12.23158,-1.06505 z m 22.99438,-5.53744 c 29.26855,-14.9317 24.61712,-71.71741 -8.40479,-102.6078 -18.42903,-17.23945 -38.74648,-20.19499 -52.68411,-7.66386 -18.6303,16.75024 -16.53583,56.20027 4.56343,85.95391 8.48989,11.97222 23.86771,23.52224 35.04632,26.32268 5.65882,1.41764 16.81082,0.37667 21.47915,-2.00493 z M 340,535.06287 C 329.14411,531.74002 315.39775,519.79159 308.28963,507.5 c -6.84766,-11.84119 -9.47886,-20.44282 -10.05348,-32.86577 -0.78358,-16.94061 1.76077,-25.46563 9.93133,-33.27549 6.56469,-6.27489 10.10178,-7.70475 18.95256,-7.66155 8.70719,0.0425 15.64577,2.64905 24.16003,9.07595 10.19494,7.69556 21.54146,25.64813 25.10846,39.72686 7.54146,29.76566 -4.71795,53.66999 -27.38853,53.40428 -3.575,-0.0419 -7.625,-0.42053 -9,-0.84141 z m 19.97123,-5.54829 c 11.08273,-5.61605 16.23534,-19.25757 14.01694,-37.10981 -2.82064,-22.69861 -15.95246,-42.84658 -33.58313,-51.52613 -11.22447,-5.52579 -23.0965,-4.23411 -30.09212,3.27404 -1.2029,1.29103 -3.5546,5.27232 -5.226,8.84732 -4.40623,9.42458 -5.13878,20.5187 -2.09717,31.76043 1.22924,4.54323 2.58622,8.47751 3.01552,8.74283 0.4293,0.26532 -0.11279,-2.32687 -1.20464,-5.76043 -2.58236,-8.12076 -2.09885,-24.01956 0.93936,-30.88793 6.01725,-13.603 17.18047,-18.44809 32.69441,-14.19013 5.38814,1.47883 6.96076,2.5678 14.08036,9.75 8.32373,8.39692 13.67698,17.01632 17.53784,28.23811 2.2589,6.56561 2.73006,24.75244 0.78879,30.4479 -1.97242,5.78688 -6.69407,11.7282 -11.62329,14.62576 -4.10314,2.41197 -5.76082,2.77164 -12.7181,2.75949 -8.89013,-0.0155 -11.39337,-0.97129 -20.26583,-7.73776 -6.01248,-4.58534 -13.42136,-13.91976 -16.86509,-21.24827 -1.29225,-2.75 -2.35394,-4.38799 -2.35931,-3.63998 -0.0181,2.51321 6.14606,12.93975 11.45495,19.37597 11.83394,14.34684 29.42787,20.3993 41.50651,14.27859 z m -4.35514,-6.4277 c 2.26385,-1.02805 5.29252,-3.41157 6.73038,-5.2967 2.89528,-3.79591 5.69031,-10.88397 5.58604,-14.16591 -0.0371,-1.16835 -0.63576,-0.0136 -1.33029,2.56617 -3.12322,11.60068 -13.21435,18.9271 -24.03754,17.45189 -2.8134,-0.38347 -3.44899,-0.28141 -2.06468,0.33154 3.40214,1.5064 10.80182,1.0722 15.11609,-0.88699 z m -5.76972,-3.70615 c 1.703,-0.3406 4.74145,-2.04134 6.75211,-3.77941 l 3.65573,-3.16014 -5.8771,-3.64561 c -10.50894,-6.51878 -18.13365,-16.54397 -22.45196,-29.52051 -1.78072,-5.35104 -2.07329,-8.06451 -1.68475,-15.62532 0.2586,-5.03236 0.80844,-9.93724 1.22188,-10.89974 0.65049,-1.51439 0.1651,-1.74911 -3.60529,-1.74341 -15.08676,0.0228 -21.19561,20.153 -12.77349,42.09185 2.83352,7.38105 4.1479,9.32433 10.82089,15.99842 9.40403,9.40559 15.41781,11.9887 23.94198,10.28387 z m 5.40893,-16.69338 c -3.33395,-3.47196 -7.45851,-8.51515 -9.16569,-11.20711 -4.78203,-7.54048 -9.08126,-19.79202 -10.47691,-29.85618 -1.19252,-8.59929 -1.30782,-8.88718 -2.00468,-5.00556 -1.01027,5.62738 1.03658,19.54661 3.91667,26.63454 3.60763,8.87843 11.74159,18.95717 19.44782,24.09766 4.87196,3.24987 4.24405,1.54468 -1.71721,-4.66335 z m 7.74057,2.56265 c -0.002,-0.4125 -2.90976,-4.11063 -6.46107,-8.21806 -3.55131,-4.10743 -7.82353,-10.18243 -9.49382,-13.5 C 343.48058,476.46019 340,463.51269 340,457.34004 340,454.1056 339.60911,453 338.46556,453 c -3.39053,0 0.72763,18.51577 7.00603,31.5 5.14551,10.64133 17.5495,25.32854 17.52428,20.75 z M 364,497.58165 c 0,-0.78009 -2.05042,-3.81759 -4.55648,-6.75 -6.17816,-7.22921 -10.28203,-15.94166 -11.90127,-25.26621 -1.4357,-8.2676 -3.54225,-12.38608 -3.54225,-6.9254 0,5.206 3.80289,18.21019 7.17604,24.53887 C 353.91444,488.31666 362.29888,499 363.59267,499 363.8167,499 364,498.36174 364,497.58165 Z m -1.61583,-13.66159 c -2.89389,-9.74808 -11.26513,-24.23141 -11.3509,-19.63851 -0.0904,4.8405 6.10275,18.64656 10.75455,23.97458 2.26254,2.59143 2.38612,1.69281 0.59635,-4.33607 z m -44.61962,-33.9609 c 3.09129,-2.11819 4.72055,-2.45916 11.75047,-2.45916 7.50505,0 8.59142,0.26721 13.5054,3.32191 2.9391,1.82705 4.81963,2.69029 4.17895,1.91831 -0.64069,-0.77197 -3.53514,-2.7095 -6.43213,-4.30562 -4.40093,-2.42473 -6.42994,-2.90471 -12.33653,-2.91831 -5.84589,-0.0135 -7.67862,0.40075 -10.59018,2.39353 -3.58486,2.45362 -7.18346,6.98381 -8.41238,10.59018 -0.37485,1.1 0.53999,0.18162 2.03297,-2.04084 1.49298,-2.22245 4.32952,-5.14745 6.30343,-6.5 z M 390.46195,494 c -1.73417,-19.80371 -12.39519,-43.18952 -25.11788,-55.09809 -8.31747,-7.78524 -11.7692,-9.32792 -4.25552,-1.90191 18.43451,18.21941 27.78051,39.86176 28.04288,64.93834 0.12731,12.16886 0.15907,12.34277 1.01556,5.56166 0.48628,-3.85 0.62801,-9.925 0.31496,-13.5 z m 29.98847,32.5934 c -3.55834,-1.54991 -8.18,-6.72484 -10.10196,-11.31128 -2.08636,-4.97876 -1.74292,-13.51093 0.66718,-16.57487 6.30904,-8.02064 18.64379,-4.3631 24.51526,7.26935 2.10394,4.16827 2.31631,13.07187 0.39732,16.65752 -2.63751,4.92823 -9.32551,6.63905 -15.4778,3.95928 z m 9.00478,-3.21458 C 431.49544,522.5959 434,517.83851 434,514.746 c 0,-3.46581 -4.71928,-12.33205 -7.55199,-14.18811 C 419.18502,495.799 413,498.99375 413,507.50421 c 0,5.5862 1.75199,9.19284 6.48371,13.34735 3.46144,3.03918 6.57862,3.82922 9.97149,2.52726 z M 270.32442,472.38837 c -1.74657,-0.86135 -4.44117,-3.39234 -5.988,-5.62441 -2.30837,-3.33098 -2.87758,-5.34879 -3.17602,-11.25865 -0.34605,-6.8529 -0.23156,-7.30417 2.37286,-9.35281 5.63476,-4.4323 12.58855,-1.56254 16.82789,6.94471 1.83063,3.6736 2.62911,6.8433 2.60705,10.34913 -0.0337,5.34859 -1.09827,7.49734 -4.65246,9.39032 -2.84771,1.5167 -4.15567,1.44333 -7.99132,-0.44829 z m 6.23502,-4.59741 c 2.48362,-1.13161 2.62523,-1.55051 2.21134,-6.54147 -0.48122,-5.80295 -2.80577,-9.80819 -7.10931,-12.24949 -7.43805,-4.21943 -9.63181,7.97875 -3.01238,16.75 2.67854,3.54926 3.90531,3.86578 7.91035,2.04096 z M 378.5,426.02851 c -11.01323,-5.6487 -14.84329,-21.88522 -7.01028,-29.71823 8.09887,-8.09887 20.74757,-1.2175 23.70838,12.89826 2.70592,12.90058 -6.41901,22.09212 -16.6981,16.81997 z m 9.13968,-3.48868 c 3.89215,-2.72618 4.71518,-6.60606 2.90236,-13.68219 C 388.47016,400.7703 385.08695,397 379.9018,397 c -2.96307,0 -4.27505,0.65487 -6.42075,3.20489 -2.31382,2.74981 -2.61308,3.81521 -2.10758,7.5032 0.82631,6.02859 4.1392,12.02404 7.91687,14.3274 3.84026,2.34153 5.57663,2.44641 8.34934,0.50434 z M 301.5,404.83574 c -3.18573,-1.75762 -7.55727,-6.10358 -9.08928,-9.03608 -1.8394,-3.52091 -1.8142,-14.11874 0.0421,-17.70847 0.79906,-1.54521 2.81533,-3.37384 4.48059,-4.06362 8.79377,-3.6425 18.06657,6.24734 18.06657,19.26877 0,5.38063 -0.30122,6.20488 -3.4,9.30366 -3.52661,3.52661 -6.54803,4.19544 -10.1,2.23574 z M 309,400 c 2.52508,-2.52508 2.71984,-10.6808 0.37315,-15.62607 -3.10614,-6.54571 -9.3558,-9.33878 -12.58385,-5.62393 -4.84879,5.57999 -1.76615,18.35018 5.3071,21.98526 3.32873,1.7107 4.5922,1.57614 6.9036,-0.73526 z m 136.82771,164.87079 c 10.09981,-16.76697 15.30704,-43.29796 13.24163,-67.46664 -2.53637,-29.67976 -12.77907,-59.77525 -28.64877,-84.17689 -24.6067,-37.83585 -61.9954,-63.59738 -91.58718,-63.10532 l -7.33339,0.12194 5.55641,0.81792 c 7.30472,1.07527 20.26274,5.85815 29.79112,10.99607 32.71117,17.63865 61.20716,53.40436 75.64422,94.94213 14.35049,41.28867 13.60817,80.67937 -2.09181,111 -2.13592,4.125 -4.05318,7.88548 -4.26059,8.35662 -0.87385,1.98505 7.68863,-8.16602 9.68836,-11.48583 z M 653.6001,517.73323 c 0.19377,-0.19376 1.14383,-5.27551 2.11126,-11.29276 1.36292,-8.47718 1.75038,-16.79448 1.72084,-36.94047 -0.0432,-29.49524 -1.46436,-41.63494 -8.07921,-69.01554 l -3.7325,-15.44978 -4.78291,-1.58863 -4.7829,-1.58862 -10.02734,8.12043 C 620.5123,394.44409 616,398.41462 616,398.80125 c 0,1.14913 5.78754,21.04597 6.41899,22.06767 0.31959,0.51711 2.95631,2.2807 5.85939,3.9191 6.62305,3.73782 12.18433,9.83626 15.58645,17.09197 2.12895,4.54039 2.62886,7.06078 2.60233,13.12001 -0.036,8.22244 -1.86983,12.97221 -7.47172,19.35242 l -2.99229,3.40802 0.61667,16.86978 c 0.67667,18.51139 1.25975,20.50769 6.70566,22.95832 2.6919,1.21134 9.11749,1.30183 10.27462,0.14469 z m 14.26299,-13.06054 c 3.78189,-3.93727 4.37127,-6.20712 6.66453,-25.66656 2.81799,-23.91205 1.3559,-52.86409 -3.98984,-79.00613 -2.75049,-13.45062 -5.10774,-22.90329 -5.91206,-23.70762 C 663.78605,375.45272 650,383.33416 650,384.65385 c 0,0.67814 1.58037,7.66919 3.51194,15.53567 1.93156,7.86648 4.43531,20.37944 5.56387,27.80658 3.56071,23.4332 3.67615,59.80382 0.25531,80.43623 l -0.65198,3.93233 2.91043,-2.09535 c 1.60074,-1.15245 4.42382,-3.67093 6.27352,-5.59662 z m -28.12578,-37.99346 c 3.70618,-7.11123 3.84416,-16.96968 0.33732,-24.10214 -2.8877,-5.87323 -8.52011,-11.74338 -13.90239,-14.48922 l -3.91075,-1.99512 -2.23568,2.37977 -2.23567,2.37977 4.0961,2.08967 c 5.75554,2.93626 8.50788,8.82956 10.54719,22.58363 0.89494,6.03592 1.86127,12.44942 2.1474,14.2522 0.65176,4.10657 1.74316,3.45074 5.15648,-3.09856 z m -23.41703,-41.50706 c 2.30428,-2.03727 1.95098,-4.0275 -3.99947,-22.53028 C 601.64346,369.44092 589.45344,344.0327 570.44722,315.36285 556.98041,295.04887 549.59141,286 546.47052,286 c -3.41699,0 -21.77368,3.98946 -22.78359,4.95156 -0.44719,0.42602 3.86642,7.16461 9.58579,14.97464 24.0221,32.80312 43.08859,69.82763 56.38843,109.4986 2.93637,8.75865 5.33885,16.26685 5.33885,16.6849 0,0.41806 0.44187,1.9223 0.98192,3.34276 l 0.98193,2.58265 8.76807,-5.62679 c 4.82245,-3.09474 9.58721,-6.35101 10.58836,-7.23615 z M 233.52027,407.18694 C 232.80852,406.47519 219,405.20635 219,405.8527 c 0,0.20505 1.2375,1.82716 2.75,3.60471 l 2.75,3.23189 4.84943,-2.41188 c 2.66719,-1.32654 4.54407,-2.71725 4.17084,-3.09048 z m 421.46679,-30.92796 c 6.45672,-3.60507 6.47335,-3.62567 3.5557,-4.40597 -2.37658,-0.6356 -4.21936,-0.0883 -9.73706,2.89195 -7.09714,3.83332 -7.97903,4.80369 -5.0557,5.56285 2.39297,0.62144 3.74508,0.13426 11.23706,-4.04883 z m -178.40084,-7.84556 c 1.85947,-4.86897 1.22407,-6.3612 -2.72435,-6.39811 -7.26275,-0.0679 -40.9718,-13.55451 -69.2995,-27.72597 -23.81523,-11.914 -29.91991,-16.23299 -54.16315,-38.31975 l -14.10077,-12.84649 -4.81605,0.68891 c -2.64882,0.3789 -4.9667,1.14089 -5.15084,1.69331 -0.37832,1.13497 11.10494,16.06682 17.88527,23.25646 16.43506,17.4272 34.50353,32.02182 51.51378,41.60971 22.3125,12.57653 53.50534,22.282 72.43668,22.53826 l 6.66729,0.0903 1.75164,-4.58658 z M 329.86599,276.15557 c -1.8513,-2.11444 -3.65608,-3.57694 -4.01064,-3.25 -0.35455,0.32694 -0.95281,2.05693 -1.32945,3.84443 l -0.68481,3.25 h 4.69544 4.69545 z m 180.4536,-46.96726 c 2.40179,-2.50694 2.62429,-3.31857 2.05279,-7.48818 -0.61934,-4.51853 -0.83067,-4.76457 -6.25668,-7.28427 -15.14547,-7.03318 -42.90189,-16.43057 -48.47518,-16.41208 -0.62728,0.002 4.03448,3.05886 10.35948,6.79284 11.75003,6.93665 21.8422,13.90022 32.48553,22.41493 3.29204,2.63365 6.24535,4.78845 6.56291,4.78845 0.31756,0 1.78957,-1.26526 3.27115,-2.81169 z m 11.89653,-8.93831 4.17323,-2.75 -2.8155,-0.32808 C 519.23132,216.6659 516,217.8095 516,219.85239 c 0,1.65564 0.80016,3.14761 1.68811,3.14761 0.19512,0 2.23273,-1.2375 4.52801,-2.75 z m 6.23388,-8.13643 c -4.12608,-3.84999 -43.23327,-15.292 -56.45,-16.51619 l -6.5,-0.60206 9,2.85718 c 10.22451,3.24592 24.38288,8.70637 32.5,12.53426 4.55714,2.14907 6.94858,2.59538 13.95,2.60347 4.95894,0.006 8.05751,-0.35645 7.5,-0.87666 z M 273.20665,178.33133 c -4.19513,-2.06757 -7.48258,-7.716 -10.37804,-17.83133 -2.01282,-7.03182 -2.28624,-10.17841 -2.25932,-26 0.0339,-19.91169 1.75274,-30.7874 7.37819,-46.684271 1.61031,-4.550557 2.75964,-8.441942 2.55406,-8.647522 -0.4516,-0.451599 -12.31224,3.420237 -18.32775,5.982984 -16.65393,7.094968 -25.91629,19.973199 -18.53893,25.776229 4.85426,3.81837 12.85271,1.91034 19.61514,-4.67919 4.44203,-4.32847 5.3027,-2.24696 1.12421,2.71889 -4.82995,5.74008 -13.91092,9.00094 -19.7237,7.08255 -5.86501,-1.93562 -8.04058,-5.23959 -8.4603,-12.84837 -0.68807,-12.473576 5.43354,-22.85081 18.58796,-31.509917 9.25108,-6.089674 17.41947,-9.09836 33.17667,-12.220069 22.14789,-4.387788 28.40248,-7.449513 34.83133,-17.050516 1.1282,-1.684879 1.2334,-1.409245 0.85657,2.244138 -0.89994,8.724707 -10.20703,18.082786 -25.74578,25.886813 l -8.68014,4.359427 -0.74208,16.794412 c -1.7544,39.704372 1.08745,66.470952 7.86141,74.044412 2.63871,2.95015 3.29011,2.85608 6.925,-1 9.1191,-9.67403 17.82483,-27.25856 20.1832,-40.76764 1.5409,-8.82646 5.67199,-18.63249 10.01111,-23.76352 8.80128,-10.407523 27.47191,-16.194327 37.26147,-11.548875 5.48445,2.602542 7.49622,6.629396 6.97185,13.955205 -0.88135,12.31301 -10.71318,24.97081 -24.01309,30.91517 -7.38615,3.30123 -8.26278,5.17229 -4.60311,9.8248 2.55534,3.24859 6.57897,3.4295 12.86374,0.57837 10.20038,-4.62747 19.41776,-14.10532 28.6343,-29.44351 8.00649,-13.3244 16.16666,-21.61855 26.06637,-26.494328 9.70009,-4.777464 15.21954,-5.058325 22.61385,-1.150718 5.53785,2.92654 5.95842,2.995557 11.35568,1.86347 5.36283,-1.124865 5.68664,-1.074616 7.49916,1.163758 3.44139,4.249935 2.47848,8.423198 -5.12885,22.228518 -11.92274,21.63667 -13.99971,27.73632 -10.14653,29.79848 3.84699,2.05885 9.64197,-2.67192 22.85667,-18.65918 C 463.48431,113.8167 466,111.53581 466,113.89951 c 0,3.05151 -15.84879,23.0278 -23.29676,29.36394 -6.76071,5.75147 -8.74368,6.73655 -13.56077,6.73655 -5.2863,0 -9.30335,-3.43683 -12.20791,-10.44458 l -2.2459,-5.41865 -5.41378,5.18161 c -11.23733,10.75542 -16.31483,12.0676 -22.30985,5.76552 -3.97407,-4.17762 -6.20561,-10.79332 -6.3749,-18.89926 -0.0876,-4.19216 -0.13296,-4.25026 -1.59013,-2.03517 -7.10883,10.80636 -16.27861,20.45201 -24.23135,25.48884 -6.23032,3.94595 -16.01047,6.70247 -21.08201,5.94195 -6.05062,-0.90735 -13.13292,-5.63768 -16.58085,-11.07449 l -2.86725,-4.52119 -2.15875,5.31882 c -4.99989,12.31894 -19.06013,30.48782 -25.79767,33.3362 -4.25462,1.7987 -9.02879,1.68614 -13.07547,-0.30827 z m 127.52659,-39.21471 c 8.4945,-6.71451 13.83619,-13.84656 15.8157,-21.11662 0.97341,-3.575 2.93304,-8.75 4.35472,-11.5 1.42168,-2.75 2.73746,-5.3375 2.92394,-5.75 0.63182,-1.397562 -2.88861,-0.759524 -6.78937,1.2305 -10.0297,5.11677 -20.56784,18.49611 -22.95369,29.14226 -1.03566,4.62132 -0.45132,11.87724 0.9565,11.87724 0.42865,0 2.99014,-1.74752 5.6922,-3.88338 z m -55.99269,-12.98426 c 4.30109,-2.19425 12.2472,-10.2742 14.62387,-14.87018 1.98387,-3.83638 3.06808,-10.40284 2.25351,-13.648315 -1.90396,-7.585982 -14.55613,-0.478873 -20.76431,11.663935 -2.62,5.12458 -4.82565,13.07272 -4.84175,17.44745 -0.0111,3.0166 0.14766,3.1646 2.45407,2.2877 1.35626,-0.51565 4.17984,-1.81192 6.27461,-2.88059 z m 177.27017,47.17993 c -6.46242,-3.35651 -6.24793,-9.63009 0.72077,-21.0808 5.02873,-8.26303 10.14915,-14.22703 17.38383,-20.2478 L 546.10383,127 l -3.30191,0.0237 c -7.80045,0.0561 -23.60316,9.29266 -36.59559,21.38989 -13.72369,12.77812 -15.36078,13.52283 -19.85268,9.03093 -2.16475,-2.16475 -2.4508,-3.11316 -1.87105,-6.20348 0.3764,-2.00643 1.5549,-5.35443 2.61889,-7.44001 2.43458,-4.77217 13.82591,-19.9137 19.27457,-25.62005 L 510.5,113.86203 505,116.0006 c -11.39022,4.42885 -25.32471,14.63264 -37.66443,27.58046 -5.64507,5.92326 -8.75056,6.82784 -11.8151,3.44156 -2.47188,-2.7314 -1.56795,-7.35465 3.51294,-17.96722 6.53349,-13.64666 20.39266,-30.12165 29.14762,-34.649015 4.53665,-2.34599 10.02333,-1.496476 11.59313,1.794984 1.68279,3.528409 0.84136,6.536231 -3.86597,13.819381 C 493.78268,113.30934 492.239,116 492.4778,116 c 0.2388,0 2.73127,-1.35441 5.53881,-3.00979 6.13171,-3.61539 15.62339,-6.93019 21.90043,-7.64834 3.74833,-0.42884 4.99052,-0.13844 6.82085,1.59458 1.23085,1.1654 2.50932,3.20034 2.84106,4.52209 0.50615,2.01666 -1.12891,9.25094 -3.2472,14.36717 -0.37416,0.90369 0.67943,0.70081 3.30968,-0.63733 C 536.10248,121.90131 546.90478,119 552.68226,119 c 4.71421,0 5.8762,0.40461 8.39466,2.92308 5.6549,5.65489 3.7266,10.38439 -10.02047,24.57692 C 540.67777,157.215 535,164.38957 535,166.78933 c 0,1.20756 0.98633,1.37244 5.21459,0.87166 6.0816,-0.72027 18.56976,-6.46165 28.40248,-13.05791 7.7807,-5.21967 9.60253,-4.62655 3.35128,1.09106 -16.09119,14.71754 -39.58805,23.00398 -49.95763,17.61815 z"
       id="path1823"
       transform="matrix(-1.7292058,0,0,1.7292059,1492.9891,73.57847)" /></g><metadata
     id="metadata1825"><rdf:RDF><cc:Work
         rdf:about=""><dc:title>FreeCAD SVG Export</dc:title></cc:Work></rdf:RDF></metadata></svg>
