<?xml version='1.0' encoding='UTF-8' standalone='no'?>
<svg height="210mm" width="297mm" viewBox="0 0 2970 2100" xmlns:xlink="http://www.w3.org/1999/xlink" xmlns:rdf="http://www.w3.org/1999/02/22-rdf-syntax-ns#" xmlns:inkscape="http://www.inkscape.org/namespaces/inkscape" version="1.2" xmlns="http://www.w3.org/2000/svg" xmlns:cc="http://creativecommons.org/ns#" xmlns:freecad="http://www.freecadweb.org/wiki/index.php?title=Svg_Namespace" xmlns:svg="http://www.w3.org/2000/svg" xmlns:dc="http://purl.org/dc/elements/1.1/" baseProfile="tiny">
 <title>FreeCAD SVG Export</title>
 <desc>Drawing page: Page005 exported from FreeCAD document: actuator</desc>
 <defs/>
 <g inkscape:groupmode="layer" inkscape:label="TechDraw" id="Page005">
  <g stroke-linecap="square" stroke="black" fill="none" id="DrawingContent" stroke-linejoin="bevel" stroke-width="1" fill-rule="evenodd">
   <g stroke-linecap="square" font-weight="400" stroke="#000000" stroke-opacity="1" font-style="normal" fill="none" font-family="MS Shell Dlg 2" font-size="29.1042" stroke-linejoin="bevel" stroke-width="1" transform="matrix(1,0,0,1,815.4,882)">
    <rect height="0" width="0" y="0" x="0"/>
   </g>
   <g fill-opacity="0" font-weight="400" stroke="none" font-style="normal" fill="#000000" font-family="MS Shell Dlg 2" font-size="29.1042" transform="matrix(1,0,0,1,815.4,882)">
    <path d="M685.361,-777 L685.361,791 L675.361,801 L638,801 L638,807 L-638,807 L-638,801 L-675.361,801 L-685.361,791 L-685.361,-777 L-655.361,-807 L655.361,-807 L685.361,-777" fill-rule="evenodd" vector-effect="non-scaling-stroke"/>
   </g>
   <g stroke-linecap="square" font-weight="400" stroke="#000000" stroke-opacity="1" font-style="normal" fill="none" font-family="MS Shell Dlg 2" font-size="29.1042" stroke-linejoin="bevel" stroke-width="1" transform="matrix(1,0,0,1,815.4,882)">
    <rect height="0" width="0" y="0" x="0"/>
   </g>
   <g fill-opacity="0" font-weight="400" stroke="none" font-style="normal" fill="#000000" font-family="MS Shell Dlg 2" font-size="29.1042" transform="matrix(1,0,0,1,815.4,882)">
    <path d="M-582.5,773 C-582.5,782.665 -590.335,790.5 -600,790.5 C-609.665,790.5 -617.5,782.665 -617.5,773 C-617.5,763.335 -609.665,755.5 -600,755.5 C-590.335,755.5 -582.5,763.335 -582.5,773 " fill-rule="evenodd" vector-effect="non-scaling-stroke"/>
   </g>
   <g stroke-linecap="square" font-weight="400" stroke="#000000" stroke-opacity="1" font-style="normal" fill="none" font-family="MS Shell Dlg 2" font-size="29.1042" stroke-linejoin="bevel" stroke-width="1" transform="matrix(1,0,0,1,815.4,882)">
    <rect height="0" width="0" y="0" x="0"/>
   </g>
   <g fill-opacity="0" font-weight="400" stroke="none" font-style="normal" fill="#000000" font-family="MS Shell Dlg 2" font-size="29.1042" transform="matrix(1,0,0,1,815.4,882)">
    <path d="M617.5,773 C617.5,782.665 609.665,790.5 600,790.5 C590.335,790.5 582.5,782.665 582.5,773 C582.5,763.335 590.335,755.5 600,755.5 C609.665,755.5 617.5,763.335 617.5,773 " fill-rule="evenodd" vector-effect="non-scaling-stroke"/>
   </g>
   <g stroke-linecap="square" font-weight="400" stroke="#000000" stroke-opacity="1" font-style="normal" fill="none" font-family="MS Shell Dlg 2" font-size="29.1042" stroke-linejoin="bevel" stroke-width="1" transform="matrix(1,0,0,1,815.4,882)">
    <rect height="0" width="0" y="0" x="0"/>
   </g>
   <g stroke-linecap="round" font-weight="400" stroke="#ff0000" stroke-opacity="1" font-style="normal" fill="none" font-family="MS Shell Dlg 2" font-size="29.1042" stroke-linejoin="bevel" stroke-width="2.5" transform="matrix(1,0,0,1,815.4,882)">
    <path d="M685.361,-777 L685.361,791" fill-rule="evenodd" vector-effect="none"/>
   </g>
   <g stroke-linecap="round" font-weight="400" stroke="#ff0000" stroke-opacity="1" font-style="normal" fill="none" font-family="MS Shell Dlg 2" font-size="29.1042" stroke-linejoin="bevel" stroke-width="2.5" transform="matrix(1,0,0,1,815.4,882)">
    <path d="M685.361,-777 L655.361,-807" fill-rule="evenodd" vector-effect="none"/>
   </g>
   <g stroke-linecap="round" font-weight="400" stroke="#ff0000" stroke-opacity="1" font-style="normal" fill="none" font-family="MS Shell Dlg 2" font-size="29.1042" stroke-linejoin="bevel" stroke-width="2.5" transform="matrix(1,0,0,1,815.4,882)">
    <path d="M685.361,791 L675.361,801" fill-rule="evenodd" vector-effect="none"/>
   </g>
   <g stroke-linecap="round" font-weight="400" stroke="#ff0000" stroke-opacity="1" font-style="normal" fill="none" font-family="MS Shell Dlg 2" font-size="29.1042" stroke-linejoin="bevel" stroke-width="2.5" transform="matrix(1,0,0,1,815.4,882)">
    <path d="M-655.361,-807 L655.361,-807" fill-rule="evenodd" vector-effect="none"/>
   </g>
   <g stroke-linecap="round" font-weight="400" stroke="#ff0000" stroke-opacity="1" font-style="normal" fill="none" font-family="MS Shell Dlg 2" font-size="29.1042" stroke-linejoin="bevel" stroke-width="2.5" transform="matrix(1,0,0,1,815.4,882)">
    <path d="M675.361,801 L638,801" fill-rule="evenodd" vector-effect="none"/>
   </g>
   <g stroke-linecap="round" font-weight="400" stroke="#ff0000" stroke-opacity="1" font-style="normal" fill="none" font-family="MS Shell Dlg 2" font-size="29.1042" stroke-linejoin="bevel" stroke-width="2.5" transform="matrix(1,0,0,1,815.4,882)">
    <path d="M-655.361,-807 L-685.361,-777" fill-rule="evenodd" vector-effect="none"/>
   </g>
   <g stroke-linecap="round" font-weight="400" stroke="#ff0000" stroke-opacity="1" font-style="normal" fill="none" font-family="MS Shell Dlg 2" font-size="29.1042" stroke-linejoin="bevel" stroke-width="2.5" transform="matrix(1,0,0,1,815.4,882)">
    <path d="M638,801 L638,807" fill-rule="evenodd" vector-effect="none"/>
   </g>
   <g stroke-linecap="round" font-weight="400" stroke="#ff0000" stroke-opacity="1" font-style="normal" fill="none" font-family="MS Shell Dlg 2" font-size="29.1042" stroke-linejoin="bevel" stroke-width="2.5" transform="matrix(1,0,0,1,815.4,882)">
    <path d="M-685.361,791 L-685.361,-777" fill-rule="evenodd" vector-effect="none"/>
   </g>
   <g stroke-linecap="round" font-weight="400" stroke="#ff0000" stroke-opacity="1" font-style="normal" fill="none" font-family="MS Shell Dlg 2" font-size="29.1042" stroke-linejoin="bevel" stroke-width="2.5" transform="matrix(1,0,0,1,815.4,882)">
    <path d="M638,807 L-638,807" fill-rule="evenodd" vector-effect="none"/>
   </g>
   <g stroke-linecap="round" font-weight="400" stroke="#ff0000" stroke-opacity="1" font-style="normal" fill="none" font-family="MS Shell Dlg 2" font-size="29.1042" stroke-linejoin="bevel" stroke-width="2.5" transform="matrix(1,0,0,1,815.4,882)">
    <path d="M-675.361,801 L-685.361,791" fill-rule="evenodd" vector-effect="none"/>
   </g>
   <g stroke-linecap="round" font-weight="400" stroke="#ff0000" stroke-opacity="1" font-style="normal" fill="none" font-family="MS Shell Dlg 2" font-size="29.1042" stroke-linejoin="bevel" stroke-width="2.5" transform="matrix(1,0,0,1,815.4,882)">
    <path d="M-638,807 L-638,801" fill-rule="evenodd" vector-effect="none"/>
   </g>
   <g stroke-linecap="round" font-weight="400" stroke="#ff0000" stroke-opacity="1" font-style="normal" fill="none" font-family="MS Shell Dlg 2" font-size="29.1042" stroke-linejoin="bevel" stroke-width="2.5" transform="matrix(1,0,0,1,815.4,882)">
    <path d="M-638,801 L-675.361,801" fill-rule="evenodd" vector-effect="none"/>
   </g>
   <g stroke-linecap="round" font-weight="400" stroke="#ff0000" stroke-opacity="1" font-style="normal" fill="none" font-family="MS Shell Dlg 2" font-size="29.1042" stroke-linejoin="bevel" stroke-width="2.5" transform="matrix(1,0,0,1,815.4,882)">
    <path d="M-582.5,773 C-582.5,782.665 -590.335,790.5 -600,790.5 C-609.665,790.5 -617.5,782.665 -617.5,773 C-617.5,763.335 -609.665,755.5 -600,755.5 C-590.335,755.5 -582.5,763.335 -582.5,773 " fill-rule="evenodd" vector-effect="none"/>
   </g>
   <g stroke-linecap="round" font-weight="400" stroke="#ff0000" stroke-opacity="1" font-style="normal" fill="none" font-family="MS Shell Dlg 2" font-size="29.1042" stroke-linejoin="bevel" stroke-width="2.5" transform="matrix(1,0,0,1,815.4,882)">
    <path d="M617.5,773 C617.5,782.665 609.665,790.5 600,790.5 C590.335,790.5 582.5,782.665 582.5,773 C582.5,763.335 590.335,755.5 600,755.5 C609.665,755.5 617.5,763.335 617.5,773 " fill-rule="evenodd" vector-effect="none"/>
   </g>
  </g>
 </g>
</svg>
