<?xml version="1.0" encoding="UTF-8" standalone="no"?>
<svg
   height="76.440659mm"
   viewBox="0 0 690.86403 764.40659"
   version="1.2"
   width="69.086403mm"
   id="svg606"
   sodipodi:docname="PCBExtract.svg"
   inkscape:version="1.2 (dc2aedaf03, 2022-05-15)"
   xmlns:inkscape="http://www.inkscape.org/namespaces/inkscape"
   xmlns:sodipodi="http://sodipodi.sourceforge.net/DTD/sodipodi-0.dtd"
   xmlns="http://www.w3.org/2000/svg"
   xmlns:svg="http://www.w3.org/2000/svg"
   xmlns:rdf="http://www.w3.org/1999/02/22-rdf-syntax-ns#"
   xmlns:cc="http://creativecommons.org/ns#"
   xmlns:dc="http://purl.org/dc/elements/1.1/">
  <sodipodi:namedview
     id="namedview608"
     pagecolor="#505050"
     bordercolor="#ffffff"
     borderopacity="1"
     inkscape:showpageshadow="0"
     inkscape:pageopacity="0"
     inkscape:pagecheckerboard="1"
     inkscape:deskcolor="#505050"
     inkscape:document-units="mm"
     showgrid="false"
     inkscape:zoom="2.1091071"
     inkscape:cx="73.253747"
     inkscape:cy="129.43866"
     inkscape:window-width="1920"
     inkscape:window-height="1017"
     inkscape:window-x="1912"
     inkscape:window-y="396"
     inkscape:window-maximized="1"
     inkscape:current-layer="Page005" />
  <title
     id="title454">FreeCAD SVG Export</title>
  <desc
     id="desc456">Drawing page: Page005 exported from FreeCAD document: beacon_assembled</desc>
  <defs
     id="defs458" />
  <g
     inkscape:groupmode="layer"
     inkscape:label="TechDraw"
     id="Page005"
     transform="translate(-42.591,-55.82594)">
    <path
       fill-rule="evenodd"
       vector-effect="none"
       d="m -300.015,256.303 c 6.71,-13.384 7.674,-28.925 2.67,-43.035 -5.005,-14.111 -15.546,-25.572 -29.189,-31.736"
       id="path504"
       transform="translate(388.023,438.029)"
       style="font-style:normal;font-weight:400;font-size:29.1042px;font-family:'MS Shell Dlg 2';fill:none;stroke:#ff0000;stroke-width:2.5;stroke-linecap:round;stroke-linejoin:bevel;stroke-opacity:1" />
    <path
       fill-rule="evenodd"
       vector-effect="none"
       d="m -300.015,256.303 c -7.119,14.199 -1.937,31.485 11.818,39.427"
       id="path508"
       transform="translate(388.023,438.029)"
       style="font-style:normal;font-weight:400;font-size:29.1042px;font-family:'MS Shell Dlg 2';fill:none;stroke:#ff0000;stroke-width:2.5;stroke-linecap:round;stroke-linejoin:bevel;stroke-opacity:1" />
    <path
       fill-rule="evenodd"
       vector-effect="none"
       d="m -326.534,181.532 c -10.743,-4.855 -17.648,-15.551 -17.648,-27.339"
       id="path512"
       transform="translate(388.023,438.029)"
       style="font-style:normal;font-weight:400;font-size:29.1042px;font-family:'MS Shell Dlg 2';fill:none;stroke:#ff0000;stroke-width:2.5;stroke-linecap:round;stroke-linejoin:bevel;stroke-opacity:1" />
    <path
       fill-rule="evenodd"
       vector-effect="none"
       d="m -288.197,295.73 140.652,81.205"
       id="path516"
       transform="translate(388.023,438.029)"
       style="font-style:normal;font-weight:400;font-size:29.1042px;font-family:'MS Shell Dlg 2';fill:none;stroke:#ff0000;stroke-width:2.5;stroke-linecap:round;stroke-linejoin:bevel;stroke-opacity:1" />
    <path
       fill-rule="evenodd"
       vector-effect="none"
       d="M -344.182,154.193 V -269.749"
       id="path520"
       transform="translate(388.023,438.029)"
       style="font-style:normal;font-weight:400;font-size:29.1042px;font-family:'MS Shell Dlg 2';fill:none;stroke:#ff0000;stroke-width:2.5;stroke-linecap:round;stroke-linejoin:bevel;stroke-opacity:1" />
    <path
       fill-rule="evenodd"
       vector-effect="none"
       d="m -117.545,376.935 c -9.282,5.359 -20.718,5.359 -30,0"
       id="path524"
       transform="translate(388.023,438.029)"
       style="font-style:normal;font-weight:400;font-size:29.1042px;font-family:'MS Shell Dlg 2';fill:none;stroke:#ff0000;stroke-width:2.5;stroke-linecap:round;stroke-linejoin:bevel;stroke-opacity:1" />
    <path
       fill-rule="evenodd"
       vector-effect="none"
       d="m -344.182,-269.749 c 0,-10.718 5.718,-20.622 15,-25.981"
       id="path528"
       transform="translate(388.023,438.029)"
       style="font-style:normal;font-weight:400;font-size:29.1042px;font-family:'MS Shell Dlg 2';fill:none;stroke:#ff0000;stroke-width:2.5;stroke-linecap:round;stroke-linejoin:bevel;stroke-opacity:1" />
    <path
       fill-rule="evenodd"
       vector-effect="none"
       d="M 249.6,164.964 -117.545,376.935"
       id="path532"
       transform="translate(388.023,438.029)"
       style="font-style:normal;font-weight:400;font-size:29.1042px;font-family:'MS Shell Dlg 2';fill:none;stroke:#ff0000;stroke-width:2.5;stroke-linecap:round;stroke-linejoin:bevel;stroke-opacity:1" />
    <path
       fill-rule="evenodd"
       vector-effect="none"
       d="m -329.182,-295.73 140.653,-81.205"
       id="path536"
       transform="translate(388.023,438.029)"
       style="font-style:normal;font-weight:400;font-size:29.1042px;font-family:'MS Shell Dlg 2';fill:none;stroke:#ff0000;stroke-width:2.5;stroke-linecap:round;stroke-linejoin:bevel;stroke-opacity:1" />
    <path
       fill-rule="evenodd"
       vector-effect="none"
       d="m 264.452,136.012 c 1.168,11.731 -4.643,23.058 -14.852,28.952"
       id="path540"
       transform="translate(388.023,438.029)"
       style="font-style:normal;font-weight:400;font-size:29.1042px;font-family:'MS Shell Dlg 2';fill:none;stroke:#ff0000;stroke-width:2.5;stroke-linecap:round;stroke-linejoin:bevel;stroke-opacity:1" />
    <path
       fill-rule="evenodd"
       vector-effect="none"
       d="m -188.529,-376.935 c 13.755,-7.942 31.316,-3.786 40.053,9.478"
       id="path544"
       transform="translate(388.023,438.029)"
       style="font-style:normal;font-weight:400;font-size:29.1042px;font-family:'MS Shell Dlg 2';fill:none;stroke:#ff0000;stroke-width:2.5;stroke-linecap:round;stroke-linejoin:bevel;stroke-opacity:1" />
    <path
       fill-rule="evenodd"
       vector-effect="none"
       d="M 315.946,75.6599 C 301,76.5406 287.059,83.4762 277.342,94.8656 267.624,106.255 262.969,121.114 264.452,136.012"
       id="path548"
       transform="translate(388.023,438.029)"
       style="font-style:normal;font-weight:400;font-size:29.1042px;font-family:'MS Shell Dlg 2';fill:none;stroke:#ff0000;stroke-width:2.5;stroke-linecap:round;stroke-linejoin:bevel;stroke-opacity:1" />
    <path
       fill-rule="evenodd"
       vector-effect="none"
       d="m -148.476,-367.457 c 8.236,12.504 21.213,21.109 35.935,23.83 14.7226,2.721 29.9181,-0.677 42.0789,-9.41"
       id="path552"
       transform="translate(388.023,438.029)"
       style="font-style:normal;font-weight:400;font-size:29.1042px;font-family:'MS Shell Dlg 2';fill:none;stroke:#ff0000;stroke-width:2.5;stroke-linecap:round;stroke-linejoin:bevel;stroke-opacity:1" />
    <path
       fill-rule="evenodd"
       vector-effect="none"
       d="m 344.182,45.7118 c 0,15.8831 -12.38,29.0138 -28.236,29.9481"
       id="path556"
       transform="translate(388.023,438.029)"
       style="font-style:normal;font-weight:400;font-size:29.1042px;font-family:'MS Shell Dlg 2';fill:none;stroke:#ff0000;stroke-width:2.5;stroke-linecap:round;stroke-linejoin:bevel;stroke-opacity:1" />
    <path
       fill-rule="evenodd"
       vector-effect="none"
       d="m -70.4621,-353.037 c 9.5752,-6.877 22.2903,-7.508 32.4995,-1.614"
       id="path560"
       transform="translate(388.023,438.029)"
       style="font-style:normal;font-weight:400;font-size:29.1042px;font-family:'MS Shell Dlg 2';fill:none;stroke:#ff0000;stroke-width:2.5;stroke-linecap:round;stroke-linejoin:bevel;stroke-opacity:1" />
    <path
       fill-rule="evenodd"
       vector-effect="none"
       d="M 344.182,-116.699 V 45.7118"
       id="path564"
       transform="translate(388.023,438.029)"
       style="font-style:normal;font-weight:400;font-size:29.1042px;font-family:'MS Shell Dlg 2';fill:none;stroke:#ff0000;stroke-width:2.5;stroke-linecap:round;stroke-linejoin:bevel;stroke-opacity:1" />
    <path
       fill-rule="evenodd"
       vector-effect="none"
       d="M -37.9626,-354.651 329.182,-142.68"
       id="path568"
       transform="translate(388.023,438.029)"
       style="font-style:normal;font-weight:400;font-size:29.1042px;font-family:'MS Shell Dlg 2';fill:none;stroke:#ff0000;stroke-width:2.5;stroke-linecap:round;stroke-linejoin:bevel;stroke-opacity:1" />
    <path
       fill-rule="evenodd"
       vector-effect="none"
       d="m 329.182,-142.68 c 9.282,5.359 15,15.263 15,25.981"
       id="path572"
       transform="translate(388.023,438.029)"
       style="font-style:normal;font-weight:400;font-size:29.1042px;font-family:'MS Shell Dlg 2';fill:none;stroke:#ff0000;stroke-width:2.5;stroke-linecap:round;stroke-linejoin:bevel;stroke-opacity:1" />
    <path
       fill-rule="evenodd"
       vector-effect="none"
       d="m -245.508,179.46 c 8.284,14.349 26.632,19.265 40.98,10.981 14.349,-8.284 19.265,-26.632 10.981,-40.981"
       id="path576"
       transform="translate(388.023,438.029)"
       style="font-style:normal;font-weight:400;font-size:29.1042px;font-family:'MS Shell Dlg 2';fill:none;stroke:#ff0000;stroke-width:2.5;stroke-linecap:round;stroke-linejoin:bevel;stroke-opacity:1" />
    <path
       fill-rule="evenodd"
       vector-effect="none"
       d="m -193.547,149.46 -65,-112.5829"
       id="path580"
       transform="translate(388.023,438.029)"
       style="font-style:normal;font-weight:400;font-size:29.1042px;font-family:'MS Shell Dlg 2';fill:none;stroke:#ff0000;stroke-width:2.5;stroke-linecap:round;stroke-linejoin:bevel;stroke-opacity:1" />
    <path
       fill-rule="evenodd"
       vector-effect="none"
       d="m -258.547,36.8771 c -8.284,-14.3488 -26.632,-19.265 -40.981,-10.9808 -14.348,8.2843 -19.265,26.632 -10.98,40.9808"
       id="path584"
       transform="translate(388.023,438.029)"
       style="font-style:normal;font-weight:400;font-size:29.1042px;font-family:'MS Shell Dlg 2';fill:none;stroke:#ff0000;stroke-width:2.5;stroke-linecap:round;stroke-linejoin:bevel;stroke-opacity:1" />
    <path
       fill-rule="evenodd"
       vector-effect="none"
       d="m -310.508,66.8771 65,112.5829"
       id="path588"
       transform="translate(388.023,438.029)"
       style="font-style:normal;font-weight:400;font-size:29.1042px;font-family:'MS Shell Dlg 2';fill:none;stroke:#ff0000;stroke-width:2.5;stroke-linecap:round;stroke-linejoin:bevel;stroke-opacity:1" />
    <path
       fill-rule="evenodd"
       vector-effect="none"
       d="m 301.818,-11.8313 c 0,8.83659 -7.163,16.00004 -16,16.00004 -8.836,0 -16,-7.16345 -16,-16.00004 0,-8.8365 7.164,-16 16,-16 8.837,0 16,7.1635 16,16"
       id="path592"
       transform="translate(388.023,438.029)"
       style="font-style:normal;font-weight:400;font-size:29.1042px;font-family:'MS Shell Dlg 2';fill:none;stroke:#ff0000;stroke-width:2.5;stroke-linecap:round;stroke-linejoin:bevel;stroke-opacity:1" />
    <path
       fill-rule="evenodd"
       vector-effect="none"
       d="m -193.182,-297.62 c 0,8.837 -7.163,16 -16,16 -8.836,0 -16,-7.163 -16,-16 0,-8.836 7.164,-16 16,-16 8.837,0 16,7.164 16,16"
       id="path596"
       transform="translate(388.023,438.029)"
       style="font-style:normal;font-weight:400;font-size:29.1042px;font-family:'MS Shell Dlg 2';fill:none;stroke:#ff0000;stroke-width:2.5;stroke-linecap:round;stroke-linejoin:bevel;stroke-opacity:1" />
    <path
       fill-rule="evenodd"
       vector-effect="none"
       d="m -193.182,273.957 c 0,8.837 -7.163,16 -16,16 -8.836,0 -16,-7.163 -16,-16 0,-8.836 7.164,-16 16,-16 8.837,0 16,7.164 16,16"
       id="path600"
       transform="translate(388.023,438.029)"
       style="font-style:normal;font-weight:400;font-size:29.1042px;font-family:'MS Shell Dlg 2';fill:none;stroke:#ff0000;stroke-width:2.5;stroke-linecap:round;stroke-linejoin:bevel;stroke-opacity:1" />
  </g>
  <metadata
     id="metadata837">
    <rdf:RDF>
      <cc:Work
         rdf:about="">
        <dc:title>FreeCAD SVG Export</dc:title>
      </cc:Work>
    </rdf:RDF>
  </metadata>
</svg>
